# xmcd
#
# Track frame offsets:
#	150
#	15224
#	41471
#	63178
#	79086
#	96787
#	130297
#	148970
#	164371
#	179341
#	191317
#	210004
#	228222
#	270485
#	284475
#	299933
#
# Disc length: 4435 seconds
#
# Revision: 0
# Processed by: cddbd v1.5.1PL0 Copyright (c) Steve Scherf et al.
# Submitted via: dBpowerAMP V4.0
#
DISCID=de115110
DTITLE=Various Artist - On the wings 48-1
DYEAR=1900
DGENRE=AlternRock
TTITLE0=8 Ball - Phunky Muzic
TTITLE1=Andre Hazes - Met kerst ben ik alleen
TTITLE2=Bee Gees - Staying Alive
TTITLE3=Birgit - Control
TTITLE4=Do - Everyday Is Christmas
TTITLE5=Erick E - Midnight magic
TTITLE6=Guus Meeuwis - Toen Ik Je Zag
TTITLE7=JayZ and Linkin Park- Numb Encore
TTITLE8=Joeri - Ya'bout to find out
TTITLE9=Mick jagger and Joss Stone - Lonely without you (this christmas)
TTITLE10=Rank 1 - Beats At Rank 1
TTITLE11=Robbie Williams - Misunderstood
TTITLE12=Ron van den Beuken - Endless (Original Mix)
TTITLE13=Roy Gates - How Deep
TTITLE14=Ryan Cabrera - True
TTITLE15=Salt Lake - Sunset Highway (Mark Norman Remix)
EXTD=
EXTT0=
EXTT1=
EXTT2=
EXTT3=
EXTT4=
EXTT5=
EXTT6=
EXTT7=
EXTT8=
EXTT9=
EXTT10=
EXTT11=
EXTT12=
EXTT13=
EXTT14=
EXTT15=
PLAYORDER=
